<svg xmlns="http://www.w3.org/2000/svg" width="240" height="172" viewBox="0 4 120 86"><g><path d="M31 60 C21 47 9 33 9 22 C9 14 15 11 22 14 C35 20 48 30 57 41 Z" fill="#DDAE7E"/><path d="M35 54 C27 44 17 33 16 25 C16 20 20 19 24 21 C34 26 44 33 51 42 Z" fill="#F4B8C4"/></g><g transform="translate(120,0) scale(-1,1)"><path d="M31 60 C21 47 9 33 9 22 C9 14 15 11 22 14 C35 20 48 30 57 41 Z" fill="#DDAE7E"/><path d="M35 54 C27 44 17 33 16 25 C16 20 20 19 24 21 C34 26 44 33 51 42 Z" fill="#F4B8C4"/></g><path d="M60 39 C84 39 95 53 94 70 C93 87 78 95 60 95 C42 95 27 87 26 70 C25 53 36 39 60 39 Z" fill="#E8C39E"/><path d="M56 39 C57 48 55 57 49 67 L71 67 C65 57 63 48 64 39 C62 38.6 58 38.6 56 39 Z" fill="#FFF3EA"/><ellipse cx="60" cy="80" rx="17" ry="13" fill="#FFF3EA"/><circle cx="45" cy="64" r="8.5" fill="#3B2A47"/><circle cx="48" cy="61" r="2.8" fill="#fff"/><circle cx="43" cy="67" r="1.3" fill="#fff"/><circle cx="75" cy="64" r="8.5" fill="#3B2A47"/><circle cx="78" cy="61" r="2.8" fill="#fff"/><circle cx="73" cy="67" r="1.3" fill="#fff"/><ellipse cx="60" cy="74" rx="4.6" ry="3.4" fill="#3B2A47"/><ellipse cx="38" cy="77" rx="4.5" ry="2.6" fill="#F4A6B8"/><ellipse cx="82" cy="77" rx="4.5" ry="2.6" fill="#F4A6B8"/><ellipse cx="40" cy="83" rx="12" ry="8.5" fill="#E8C39E" stroke="#C99A6B" stroke-width="1.2"/><path d="M36 85 v5 M44 85 v5" stroke="#C99A6B" stroke-width="1.4" stroke-linecap="round"/><ellipse cx="80" cy="83" rx="12" ry="8.5" fill="#E8C39E" stroke="#C99A6B" stroke-width="1.2"/><path d="M76 85 v5 M84 85 v5" stroke="#C99A6B" stroke-width="1.4" stroke-linecap="round"/></svg>